<mxfile host="app.diagrams.net" agent="Mozilla/5.0 (Windows NT 10.0; Win64; x64) AppleWebKit/537.36 (KHTML, like Gecko) Chrome/135.0.0.0 Safari/537.36" version="27.0.6">
  <diagram name="Página-1" id="KHj9UvRceqb4tbOm3ubL">
    <mxGraphModel dx="1852" dy="845" grid="1" gridSize="10" guides="0" tooltips="1" connect="1" arrows="1" fold="1" page="1" pageScale="1" pageWidth="1169" pageHeight="827" math="0" shadow="0">
      <root>
        <mxCell id="0" />
        <mxCell id="1" parent="0" />
        <mxCell id="VdR0W7m9JcUabFYZLLn1-5" value="" style="group;flipH=1;" vertex="1" connectable="0" parent="1">
          <mxGeometry x="550" y="130" width="78" height="113" as="geometry" />
        </mxCell>
        <mxCell id="VdR0W7m9JcUabFYZLLn1-3" value="" style="sketch=0;points=[[0,0,0],[0.25,0,0],[0.5,0,0],[0.75,0,0],[1,0,0],[0,1,0],[0.25,1,0],[0.5,1,0],[0.75,1,0],[1,1,0],[0,0.25,0],[0,0.5,0],[0,0.75,0],[1,0.25,0],[1,0.5,0],[1,0.75,0]];outlineConnect=0;fontColor=#232F3E;fillColor=#8C4FFF;strokeColor=#ffffff;dashed=0;verticalLabelPosition=bottom;verticalAlign=top;align=center;html=1;fontSize=12;fontStyle=0;aspect=fixed;shape=mxgraph.aws4.resourceIcon;resIcon=mxgraph.aws4.api_gateway;" vertex="1" parent="VdR0W7m9JcUabFYZLLn1-5">
          <mxGeometry width="78" height="78" as="geometry" />
        </mxCell>
        <mxCell id="VdR0W7m9JcUabFYZLLn1-17" style="edgeStyle=orthogonalEdgeStyle;rounded=0;orthogonalLoop=1;jettySize=auto;html=1;" edge="1" parent="VdR0W7m9JcUabFYZLLn1-5" source="VdR0W7m9JcUabFYZLLn1-4">
          <mxGeometry relative="1" as="geometry">
            <mxPoint x="-150" y="190" as="targetPoint" />
          </mxGeometry>
        </mxCell>
        <mxCell id="VdR0W7m9JcUabFYZLLn1-18" style="edgeStyle=orthogonalEdgeStyle;rounded=0;orthogonalLoop=1;jettySize=auto;html=1;" edge="1" parent="VdR0W7m9JcUabFYZLLn1-5" source="VdR0W7m9JcUabFYZLLn1-4">
          <mxGeometry relative="1" as="geometry">
            <mxPoint x="40" y="190" as="targetPoint" />
          </mxGeometry>
        </mxCell>
        <mxCell id="VdR0W7m9JcUabFYZLLn1-19" style="edgeStyle=orthogonalEdgeStyle;rounded=0;orthogonalLoop=1;jettySize=auto;html=1;" edge="1" parent="VdR0W7m9JcUabFYZLLn1-5" source="VdR0W7m9JcUabFYZLLn1-4">
          <mxGeometry relative="1" as="geometry">
            <mxPoint x="220" y="200" as="targetPoint" />
          </mxGeometry>
        </mxCell>
        <mxCell id="VdR0W7m9JcUabFYZLLn1-4" value="API Gateway" style="text;html=1;align=center;verticalAlign=middle;whiteSpace=wrap;rounded=0;" vertex="1" parent="VdR0W7m9JcUabFYZLLn1-5">
          <mxGeometry x="10" y="83" width="60" height="30" as="geometry" />
        </mxCell>
        <mxCell id="VdR0W7m9JcUabFYZLLn1-6" value="" style="group" vertex="1" connectable="0" parent="1">
          <mxGeometry x="550" y="340" width="82.5" height="140" as="geometry" />
        </mxCell>
        <mxCell id="VdR0W7m9JcUabFYZLLn1-1" value="" style="outlineConnect=0;dashed=0;verticalLabelPosition=bottom;verticalAlign=top;align=center;html=1;shape=mxgraph.aws3.cloudwatch;fillColor=#759C3E;gradientColor=none;" vertex="1" parent="VdR0W7m9JcUabFYZLLn1-6">
          <mxGeometry width="82.5" height="93" as="geometry" />
        </mxCell>
        <mxCell id="VdR0W7m9JcUabFYZLLn1-2" value="Cloud&lt;br/&gt;Watch" style="text;html=1;align=center;verticalAlign=middle;whiteSpace=wrap;rounded=0;" vertex="1" parent="VdR0W7m9JcUabFYZLLn1-6">
          <mxGeometry x="11" y="110" width="60" height="30" as="geometry" />
        </mxCell>
        <mxCell id="VdR0W7m9JcUabFYZLLn1-9" value="" style="group" vertex="1" connectable="0" parent="1">
          <mxGeometry x="730" y="340" width="76.5" height="120" as="geometry" />
        </mxCell>
        <mxCell id="VdR0W7m9JcUabFYZLLn1-7" value="" style="outlineConnect=0;dashed=0;verticalLabelPosition=bottom;verticalAlign=top;align=center;html=1;shape=mxgraph.aws3.sns;fillColor=#D9A741;gradientColor=none;" vertex="1" parent="VdR0W7m9JcUabFYZLLn1-9">
          <mxGeometry width="76.5" height="76.5" as="geometry" />
        </mxCell>
        <mxCell id="VdR0W7m9JcUabFYZLLn1-8" value="&lt;font style=&quot;vertical-align: inherit;&quot;&gt;&lt;font style=&quot;vertical-align: inherit;&quot;&gt;SNS&lt;/font&gt;&lt;/font&gt;" style="text;html=1;align=center;verticalAlign=middle;whiteSpace=wrap;rounded=0;" vertex="1" parent="VdR0W7m9JcUabFYZLLn1-9">
          <mxGeometry x="9" y="90" width="60" height="30" as="geometry" />
        </mxCell>
        <mxCell id="VdR0W7m9JcUabFYZLLn1-12" value="" style="group" vertex="1" connectable="0" parent="1">
          <mxGeometry x="360" y="340" width="80" height="130" as="geometry" />
        </mxCell>
        <mxCell id="VdR0W7m9JcUabFYZLLn1-10" value="" style="outlineConnect=0;dashed=0;verticalLabelPosition=bottom;verticalAlign=top;align=center;html=1;shape=mxgraph.aws3.rds;fillColor=#2E73B8;gradientColor=none;" vertex="1" parent="VdR0W7m9JcUabFYZLLn1-12">
          <mxGeometry width="80" height="90" as="geometry" />
        </mxCell>
        <mxCell id="VdR0W7m9JcUabFYZLLn1-20" style="edgeStyle=orthogonalEdgeStyle;rounded=0;orthogonalLoop=1;jettySize=auto;html=1;" edge="1" parent="VdR0W7m9JcUabFYZLLn1-12" source="VdR0W7m9JcUabFYZLLn1-11">
          <mxGeometry relative="1" as="geometry">
            <mxPoint x="40" y="200" as="targetPoint" />
          </mxGeometry>
        </mxCell>
        <mxCell id="VdR0W7m9JcUabFYZLLn1-11" value="RDS" style="text;html=1;align=center;verticalAlign=middle;whiteSpace=wrap;rounded=0;" vertex="1" parent="VdR0W7m9JcUabFYZLLn1-12">
          <mxGeometry x="10" y="100" width="60" height="30" as="geometry" />
        </mxCell>
        <mxCell id="VdR0W7m9JcUabFYZLLn1-21" style="edgeStyle=orthogonalEdgeStyle;rounded=0;orthogonalLoop=1;jettySize=auto;html=1;" edge="1" parent="1" source="VdR0W7m9JcUabFYZLLn1-13">
          <mxGeometry relative="1" as="geometry">
            <mxPoint x="880" y="607.0000000000002" as="targetPoint" />
          </mxGeometry>
        </mxCell>
        <mxCell id="VdR0W7m9JcUabFYZLLn1-13" value="" style="points=[[0,0.5,0],[0.24,0,0],[0.5,0.28,0],[0.995,0.475,0],[0.5,0.72,0],[0.24,1,0]];verticalLabelPosition=bottom;sketch=0;html=1;verticalAlign=top;aspect=fixed;align=center;pointerEvents=1;shape=mxgraph.cisco19.key;fillColor=#005073;strokeColor=none;rotation=90;" vertex="1" parent="1">
          <mxGeometry x="340" y="580" width="120" height="54" as="geometry" />
        </mxCell>
        <mxCell id="VdR0W7m9JcUabFYZLLn1-14" value="Criptografia simétrica" style="text;html=1;align=center;verticalAlign=middle;whiteSpace=wrap;rounded=0;" vertex="1" parent="1">
          <mxGeometry x="370" y="681" width="60" height="30" as="geometry" />
        </mxCell>
        <mxCell id="VdR0W7m9JcUabFYZLLn1-15" value="" style="sketch=0;points=[[0,0,0],[0.25,0,0],[0.5,0,0],[0.75,0,0],[1,0,0],[0,1,0],[0.25,1,0],[0.5,1,0],[0.75,1,0],[1,1,0],[0,0.25,0],[0,0.5,0],[0,0.75,0],[1,0.25,0],[1,0.5,0],[1,0.75,0]];points=[[0,0,0],[0.25,0,0],[0.5,0,0],[0.75,0,0],[1,0,0],[0,1,0],[0.25,1,0],[0.5,1,0],[0.75,1,0],[1,1,0],[0,0.25,0],[0,0.5,0],[0,0.75,0],[1,0.25,0],[1,0.5,0],[1,0.75,0]];outlineConnect=0;fontColor=#232F3E;fillColor=#E7157B;strokeColor=#ffffff;dashed=0;verticalLabelPosition=bottom;verticalAlign=top;align=center;html=1;fontSize=12;fontStyle=0;aspect=fixed;shape=mxgraph.aws4.resourceIcon;resIcon=mxgraph.aws4.managed_service_for_grafana;" vertex="1" parent="1">
          <mxGeometry x="890" y="570" width="78" height="78" as="geometry" />
        </mxCell>
        <mxCell id="VdR0W7m9JcUabFYZLLn1-16" value="Grafana" style="text;html=1;align=center;verticalAlign=middle;whiteSpace=wrap;rounded=0;" vertex="1" parent="1">
          <mxGeometry x="900" y="660" width="60" height="30" as="geometry" />
        </mxCell>
      </root>
    </mxGraphModel>
  </diagram>
</mxfile>
